<svg xmlns="http://www.w3.org/2000/svg" viewBox="0 0 157.5 173.46"><defs><style>.cls-1{fill:#293378;}</style></defs><g id="Ebene_2" data-name="Ebene 2"><g id="Ebene_1-2" data-name="Ebene 1"><path class="cls-1" d="M50.2,19.7H48.81V18.31a.47.47,0,0,0-.47-.46h-.23a12.4,12.4,0,0,0-7.63,2.65,12.39,12.39,0,0,0-7.64-2.65h-.23a.47.47,0,0,0-.47.46V19.7H30.76a.47.47,0,0,0-.47.46V35a.47.47,0,0,0,.47.47h6.38a6.18,6.18,0,0,1,2.21.41l.92.47h0a.43.43,0,0,0,.35,0h0l.93-.46a6.25,6.25,0,0,1,2.26-.42H50.2a.47.47,0,0,0,.46-.47V20.16A.47.47,0,0,0,50.2,19.7ZM40.94,35V21.31a11.48,11.48,0,0,1,6.94-2.54V32.66A12.52,12.52,0,0,0,40.94,35ZM33.07,18.77A11.48,11.48,0,0,1,40,21.31V35a12.52,12.52,0,0,0-6.94-2.3ZM31.22,34.51V20.63h.92V33.12a.47.47,0,0,0,.47.47h.2a11.48,11.48,0,0,1,4.51.92Zm18.51,0h-6.1a11.48,11.48,0,0,1,4.51-.92h.2a.47.47,0,0,0,.47-.47V20.63h.92Z"/><path class="cls-1" d="M92.11,2.43H90.29V.61A.61.61,0,0,0,89.68,0h-.3a16.24,16.24,0,0,0-10,3.49A16.23,16.23,0,0,0,69.34,0H69a.6.6,0,0,0-.6.61V2.43H66.6A.6.6,0,0,0,66,3V22.47a.6.6,0,0,0,.6.61H75a8,8,0,0,1,2.9.54l1.21.61h0a.53.53,0,0,0,.46,0h0l1.22-.59a8.1,8.1,0,0,1,3-.56h8.38a.61.61,0,0,0,.61-.61V3A.61.61,0,0,0,92.11,2.43ZM80,22.45V4.54a15.07,15.07,0,0,1,9.11-3.33V19.43A16.49,16.49,0,0,0,80,22.45ZM69.64,1.21a15.13,15.13,0,0,1,9.11,3.33V22.45a16.46,16.46,0,0,0-9.11-3ZM67.21,21.86V3.64h1.22V20a.6.6,0,0,0,.6.61h.27a15.29,15.29,0,0,1,5.92,1.21Zm24.29,0h-8a15.2,15.2,0,0,1,5.91-1.21h.27a.61.61,0,0,0,.61-.61V3.64H91.5Z"/><path class="cls-1" d="M126,19.7h-1.39V18.31a.47.47,0,0,0-.46-.46H124a12.42,12.42,0,0,0-7.63,2.65,12.39,12.39,0,0,0-7.64-2.65h-.23a.46.46,0,0,0-.46.46V19.7H106.6a.47.47,0,0,0-.47.46V35a.47.47,0,0,0,.47.47H113a6.14,6.14,0,0,1,2.21.41l.92.47h0a.45.45,0,0,0,.36,0h0l.92-.46a6.25,6.25,0,0,1,2.26-.42H126a.47.47,0,0,0,.46-.47V20.16A.47.47,0,0,0,126,19.7ZM116.78,35V21.31a11.48,11.48,0,0,1,6.94-2.54V32.66A12.52,12.52,0,0,0,116.78,35Zm-7.87-16.19a11.48,11.48,0,0,1,6.94,2.54V35a12.52,12.52,0,0,0-6.94-2.3Zm-1.85,15.74V20.63H108V33.12a.46.46,0,0,0,.46.47h.2a11.44,11.44,0,0,1,4.51.92Zm18.51,0h-6.1a11.48,11.48,0,0,1,4.51-.92h.21a.47.47,0,0,0,.46-.47V20.63h.92Z"/><path class="cls-1" d="M78.75,34.2A17.8,17.8,0,1,0,96.58,52,17.91,17.91,0,0,0,78.75,34.2Zm0,7.68A10.12,10.12,0,1,1,68.6,52,10.1,10.1,0,0,1,78.75,41.88ZM25.14,45.36a15,15,0,1,0,15,15A15.07,15.07,0,0,0,25.14,45.36Zm107.21,0a15,15,0,1,0,15,15A15.07,15.07,0,0,0,132.35,45.36ZM25.14,53.05a7.32,7.32,0,1,1-7.32,7.32A7.27,7.27,0,0,1,25.14,53.05Zm107.21,0A7.32,7.32,0,1,1,125,60.37,7.27,7.27,0,0,1,132.35,53.05ZM14,82.64a3.83,3.83,0,0,0-2.34,1.08L1.13,94.23A3.87,3.87,0,0,0,.05,97.59L8.4,146.45a3.83,3.83,0,0,0,3.78,3.18H26.11a3.84,3.84,0,1,0,.1-7.68H15.42L8,98.25l8-7.93H38a3.84,3.84,0,1,0,.11-7.68H14Zm105.05,0a3.85,3.85,0,0,0,.42,7.68h22l8,7.93L142.08,142H131.39a3.84,3.84,0,0,0-.1,7.68h14a3.83,3.83,0,0,0,3.78-3.18l8.35-48.86a3.87,3.87,0,0,0-1.08-3.36L145.8,83.72a3.82,3.82,0,0,0-2.7-1.08H119.51A2.94,2.94,0,0,0,119.09,82.64ZM62.36,83.78A3.83,3.83,0,0,0,60,84.86L49.52,95.31a3.81,3.81,0,0,0-1.08,3.36l2.94,17.89A3.84,3.84,0,0,0,59,116a4.22,4.22,0,0,0-.1-.62l-2.64-16,8-7.92H93.22l8,7.92-3,20.2c-.51,2.06,1.16-.09,3.22.41a3.83,3.83,0,0,0,4.64-2.82,3.21,3.21,0,0,0,.1-.62l2.94-17.89A3.81,3.81,0,0,0,108,95.31L97.48,84.86a3.85,3.85,0,0,0-2.7-1.08H62.36Z"/><path class="cls-1" d="M76,156.67c0-14.16-27.29-11-27.29-30.94,0-10.5,8.16-16.88,20.07-16.88,10.69,0,20.44,5.07,18.47,16.6l-8,1.69c1.13-7.32-2.72-11.54-10.22-11.54-7.22,0-11.91,3.94-11.91,9.76,0,13.87,27.29,11.81,27.29,30.28,0,9.85-8.16,17.82-21.66,17.82-11.91,0-21.85-6-19.51-18.29l7.88-1.69c-1.31,7.88,2.16,13.23,11.25,13.23C69.78,166.71,76,163.05,76,156.67Z"/><path class="cls-1" d="M108.18,104l-9.05,61.08h27.94l-1,7H90.31l10.59-71Z"/></g></g></svg>